<svg width="42" height="42" viewBox="0 0 42 42" fill="none" xmlns="http://www.w3.org/2000/svg">
<path d="M31.5078 20.9843C37.3868 20.9843 42.1369 16.1486 41.997 10.2381C41.8657 4.67308 37.3254 0.134264 31.7604 0.00295238C25.8499 -0.135496 21.0157 4.61313 21.0157 10.4922C21.0157 16.3712 25.7129 20.9843 31.5078 20.9843Z" fill="#6CC4CA"/>
<path d="M17.2519 31.5149C17.2519 35.3358 14.0818 38.4159 10.2281 38.2703C6.72411 38.1376 3.86951 35.283 3.73677 31.7789C3.58976 27.9252 6.6713 24.7552 10.4922 24.7552C14.3131 24.7552 17.2519 27.7811 17.2519 31.5149ZM20.9843 31.5149C20.9843 25.6358 16.1486 20.8858 10.2381 21.0257C4.67308 21.1555 0.134264 25.6958 0.00295238 31.2623C-0.135496 37.1727 4.61313 42.007 10.4922 42.007C16.3712 42.007 20.9843 37.3097 20.9843 31.5149Z" fill="#6CC4CA"/>
<path d="M9.7782e-05 20.9843H20.9843V9.77821e-05H10.5207C4.71162 9.77821e-05 9.7782e-05 4.71162 9.7782e-05 10.5222V20.9857V20.9843Z" fill="#00363B"/>
<path d="M21.0157 42.007H31.2979C37.2084 42.007 41.9998 37.2155 41.9998 31.3051V21.0228H21.0157V42.007Z" fill="#00363B"/>
</svg>
